<svg width="24" height="24" viewBox="0 0 24 24" fill="none" xmlns="http://www.w3.org/2000/svg">
<path d="M12 2C6.5 2 2 6.5 2 12C2 17.5 6.5 22 12 22C17.5 22 22 17.5 22 12C22 6.5 17.5 2 12 2ZM12 4C16.4 4 20 7.6 20 12C20 13.4 19.7 14.7 19 15.8C18 15 16.7 14.2 15.2 13.6C16 12.8 16.5 11.7 16.5 10.5C16.5 8 14.5 6 12 6C9.5 6 7.5 8 7.5 10.5C7.5 11.7 8 12.8 8.8 13.6C7.2 14.2 5.9 15 5 15.8C4.4 14.7 4 13.4 4 12C4 7.6 7.6 4 12 4ZM9.5 10.5C9.5 9.1 10.6 8 12 8C13.4 8 14.5 9.1 14.5 10.5C14.5 11.9 13.4 13 12 13C10.6 13 9.5 11.9 9.5 10.5ZM12 20C9.7 20 7.6 19 6.1 17.4C7.4 16.4 9.6 15 12 15C14.4 15 16.6 16.4 17.9 17.4C16.4 19 14.3 20 12 20Z" fill="black"/>
</svg>
